<svg 
 xmlns="http://www.w3.org/2000/svg"
 xmlns:xlink="http://www.w3.org/1999/xlink"
 viewBox="0 0 1024 1024">
<path fill-rule="evenodd"  fill="rgb(132, 126, 224)"
 d="M375.431,7.043l158.775,3.78c32,48.453,61.842,96.945,90.729,147.435,26.252,45.882,52.118,94.616,77.5,145.544,34.488,69.2,72.725,155.38,107.741,240.054,30.041,72.647,60.2,150.013,81.278,211.7,18.242,53.385,37.295,115.2,54.815,175.787,7.872,27.224,15.351,54.019,22.682,81.276-22.181,1.87-43.908,3.11-66.156,3.78-24.744.75-48.972,0.75-73.718,0-6.767-23.475-13.629-46.556-20.792-69.934q-11.154-36.408-22.682-71.828c-15.876-48.731-32.837-98.09-49.145-141.764-23.12-61.917-48.012-122.255-75.607-183.348a1.891,1.891,0,0,0-3.781,0c-11.533,30.608-23.642,60.235-35.913,90.729C583.3,734.314,545.241,822.694,496.4,904.881q-29.3,54.81-58.6,109.629H279.031c16.156-25.283,31.133-50.87,45.365-77.495,13.606-25.456,25.486-50.483,37.8-77.5,19.948-43.747,40.892-82.736,60.486-126.643,17.836-39.965,40.623-97.445,60.486-149.324,14.048-36.69,25.344-69.091,34.024-103.961,22.213-89.236,20.35-166.871,9.451-209.81-5.91-23.283-27.615-69.906-51.035-111.521-13.2-23.455-32.281-53.39-51.036-81.278C408.6,53.228,392.492,30.306,375.431,7.043Z"/>
</svg>
